<svg width="70" height="70" viewBox="0 0 70 70" fill="currentColor" xmlns="http://www.w3.org/2000/svg">
<path d="M17.7183 27.2557C19.992 26.311 22.3065 25.3373 24.6556 24.5845C24.8475 24.5092 25.5841 25.8876 25.5433 25.9166C23.3739 27.0939 21.1699 28.0503 18.9251 29.0357C17.9946 29.4531 16.2329 29.9101 15.2612 30.7866C16.0048 31.0549 16.7892 31.2942 17.5736 31.5334C17.2372 30.975 16.8951 30.2364 16.8951 30.2364C24.6922 27.9964 33.0976 27.4718 41 29.5157C47.0546 31.0342 53.6946 33.9774 56.5822 39.8398C56.9532 40.6191 55.6532 38.9668 55.5199 38.6935C54.0703 35.7971 49.2947 33.9198 46.4305 32.8294C43.4676 31.6867 40.3937 30.9913 37.2322 30.6039C31.1475 29.9049 24.9971 30.6647 19.0436 31.9595C20.136 32.2863 21.1993 32.5724 22.3033 32.8295C22.9192 33.0046 23.1498 34.6207 23.5972 34.7317C20.5233 34.0363 17.595 33.1144 14.661 32.0123C14.295 31.8433 13.3376 30.4995 13.3672 30.1101C13.3982 28.4304 16.4447 27.7947 17.7183 27.2557Z" fill="currentColor"/>
</svg>
