<svg width="70" height="70" viewBox="0 0 70 70" fill="currentColor" xmlns="http://www.w3.org/2000/svg">
<path d="M52.0164 27.2557C49.7426 26.311 47.4281 25.3373 45.079 24.5845C44.8871 24.5092 44.1506 25.8876 44.1913 25.9166C46.3607 27.0939 48.5648 28.0503 50.8095 29.0357C51.74 29.4531 53.5017 29.9101 54.4734 30.7866C53.7298 31.0549 52.9454 31.2942 52.161 31.5334C52.4975 30.975 52.8395 30.2364 52.8395 30.2364C45.0424 27.9964 36.6371 27.4718 28.7347 29.5157C22.68 31.0342 16.04 33.9774 13.1525 39.8398C12.7814 40.6191 14.0814 38.9668 14.2148 38.6935C15.6644 35.7971 20.4399 33.9198 23.3041 32.8294C26.267 31.6867 29.3409 30.9913 32.5024 30.6039C38.5871 29.9049 44.7376 30.6647 50.691 31.9595C49.5987 32.2863 48.5353 32.5724 47.4313 32.8295C46.8154 33.0046 46.5848 34.6207 46.1374 34.7317C49.2113 34.0363 52.1397 33.1144 55.0736 32.0123C55.4396 31.8433 56.397 30.4995 56.3675 30.1101C56.3364 28.4304 53.2899 27.7947 52.0164 27.2557Z" fill="currentColor"/>
</svg>
