<svg width="1439" height="507" viewBox="0 0 1439 507" fill="none" xmlns="http://www.w3.org/2000/svg">
<path d="M0 189L52.8 173L107.2 198.6L160 134.6L212.8 392.2L267.2 176.2L320 365L372.8 281.8L427.2 328.2L480 205L532.8 141L587.2 133L640 358.6L692.8 401.8L747.2 259.4L800 294.6L852.8 379.4L907.2 177.8L960 253L1012.8 169.8L1067.2 147.4L1120 312.2L1172.8 201.8L1227.2 326.6L1280 253L1332.8 144.2L1387.2 163.4L1440 405V510.6H1387.2H1332.8H1280H1227.2H1172.8H1120H1067.2H1012.8H960H907.2H852.8H800H747.2H692.8H640H587.2H532.8H480H427.2H372.8H320H267.2H212.8H160H107.2H52.8H0V189Z" fill="#3DB98A"/>
</svg>
