<svg width="159" height="160" viewBox="0 0 159 160" fill="none" xmlns="http://www.w3.org/2000/svg">
<path d="M119.363 14.3425C118.139 13.4767 117.348 11.999 116.005 11.4018C115.125 10.8495 113.96 11.297 113.677 12.2968C113.587 13.2221 114.348 14.0431 114.84 14.7447C115.258 15.2522 115.721 15.297 116.303 15.0733C116.915 15.5062 117.527 15.9391 118.258 16.1034C119.332 16.5812 120.512 15.0144 119.363 14.3425Z" fill="black"/>
<path d="M104.931 10.9819C103.514 10.1906 101.902 9.47397 100.365 8.95133C98.8277 8.42869 96.828 7.86119 95.4698 8.38329C94.6936 8.68164 94.6785 9.80096 95.4098 9.96527C96.7528 10.5625 98.3797 10.1598 99.8422 10.4884C101.499 10.7425 102.842 11.3397 104.454 12.0564C105.185 12.2207 105.469 11.2208 104.931 10.9819Z" fill="black"/>
<path d="M85.6787 13.0379C87.0818 12.0531 88.7534 11.1878 90.4997 10.5165C91.0818 10.2928 90.7089 9.32263 90.1268 9.54639C87.7984 10.4414 82.6942 11.0673 82.037 13.9924C81.7981 14.5296 82.6039 14.8879 82.992 14.7387C83.9621 14.3658 84.7831 13.6048 85.6787 13.0379Z" fill="black"/>
<path d="M82.4823 26.7379C80.9009 23.7826 79.2746 21.2899 79.7081 17.7828C79.7529 17.3201 79.2903 17.2753 79.2454 17.7379C78.2299 21.4688 78.5277 25.1403 81.5419 27.7675C82.2283 28.3945 82.9001 27.2454 82.4823 26.7379Z" fill="black"/>
<path d="M97.9419 36.8296C96.7631 35.5011 95.1514 34.7844 93.6592 33.7992C91.8983 32.6944 90.212 31.7837 88.3317 30.9476C87.7945 30.7087 87.2421 31.5892 87.8539 32.0221C89.4656 32.7388 90.7638 33.7986 92.2561 34.7839C93.7483 35.7692 95.1957 37.2171 96.8074 37.9338C97.6133 38.2921 98.6283 37.4566 97.9419 36.8296Z" fill="black"/>
<path d="M116.909 44.4595C114.209 41.4891 109.642 39.4585 105.956 37.9803C105.225 37.816 104.866 38.6218 105.478 39.0548C107.433 40.0849 109.463 41.3091 111.298 42.6078C112.79 43.5931 114.163 44.847 115.775 45.5637C116.775 45.8474 117.327 44.967 116.909 44.4595Z" fill="black"/>
<path d="M130.727 58.9685C129.578 55.4014 126.877 52.431 124.52 49.774C124.102 49.2665 123.401 49.7589 123.624 50.3409C125.862 53.2665 127.518 56.4159 128.98 59.6398C129.547 60.5354 131.1 59.9387 130.727 58.9685Z" fill="black"/>
<path d="M129.321 74.4299C130.112 73.0123 130.754 71.2065 131.277 69.6694C131.68 68.4009 130.068 67.6842 129.397 68.8333C128.8 70.1767 128.008 71.594 127.217 73.0117C126.426 74.4297 125.052 76.0708 124.604 77.8019C124.44 78.5332 125.32 79.0856 126.022 78.5932C127.574 77.9965 128.604 76.0416 129.321 74.4299Z" fill="black"/>
<path d="M120.26 82.1442C121.037 81.8458 120.515 80.4879 119.738 80.7863C117.724 81.3381 115.828 81.6213 113.738 81.9788C111.843 82.262 109.724 81.9631 107.784 82.709C106.813 83.0819 106.947 84.5893 108.067 84.6047C112.037 85.0831 116.842 83.6807 120.26 82.1442Z" fill="black"/>
<path d="M97.4561 81.334C95.7248 80.8856 93.9938 80.4379 92.2626 79.9895C90.6061 79.7358 88.7258 78.8997 87.0989 79.302C86.3227 79.6004 86.427 80.4511 86.8448 80.9586C87.949 82.0931 89.9191 82.0039 91.307 82.1385C93.2322 82.5119 95.2768 82.6168 97.202 82.9902C98.3214 83.0057 98.456 81.6178 97.4561 81.334Z" fill="black"/>
<path d="M79.5626 77.0773C77.3391 75.9277 75.2647 75.1661 73.0709 74.6732C70.8772 74.1803 67.7581 73.5977 65.7729 74.8062C64.8773 75.3732 65.0562 76.4179 66.0561 76.7016C67.7873 77.1497 69.8021 76.5979 71.5781 76.5833C74.2049 76.4644 76.8613 77.0021 79.3983 77.8085C79.7415 78.122 80.0998 77.3162 79.5626 77.0773Z" fill="black"/>
<path d="M56.2961 73.3269C54.0726 72.1773 51.8043 71.4904 49.2224 71.1466C46.6405 70.8029 43.4017 70.489 41.2225 71.7721C40.521 72.2645 40.9685 73.4287 41.6252 73.3989C43.8193 73.8917 46.1476 72.9967 48.3863 73.027C50.8187 72.9828 53.4754 73.5204 56.0124 74.3268C56.5496 74.5657 57.102 73.6852 56.2961 73.3269Z" fill="black"/>
<path d="M26.5353 84.5444C26.789 82.8879 26.9235 81.5 27.7148 80.0823C28.8941 78.5155 31.0733 77.2324 32.8196 76.5611C33.402 76.3372 33.0291 75.3671 32.4467 75.591C28.6109 76.62 22.5066 79.8574 24.6395 84.8277C25.1319 85.5292 26.4452 85.4698 26.5353 84.5444Z" fill="black"/>
<path d="M27.6499 107.722C27.0236 105.514 25.8153 103.528 24.995 101.394C24.1444 98.6028 23.9512 95.7819 24.683 93.0509C24.7276 92.5884 24.0709 92.6181 23.9518 92.8866C22.4136 98.1546 21.8602 104.826 25.9338 109.05C26.8887 109.796 28.0229 108.692 27.6499 107.722Z" fill="black"/>
<path d="M47.1839 119.143C45.8857 118.083 44.274 117.366 42.7071 116.187C41.4089 115.127 40.424 113.724 39.6334 112.247C39.0663 111.351 37.7081 111.873 38.0812 112.843C39.2297 116.41 42.1094 120.426 46.1537 121.098C47.4224 121.501 47.9452 119.964 47.1839 119.143Z" fill="black"/>
<path d="M61.8839 122.623C58.3919 121.07 54.6314 119.398 50.8555 118.845C49.6613 118.636 49.6016 120.218 50.6015 120.502C54.1383 121.592 57.4212 124.338 61.3165 124.623C62.3608 124.444 62.9581 123.101 61.8839 122.623Z" fill="black"/>
<path d="M67.2838 137.25C68.2243 136.221 68.4037 134.37 68.5383 132.982C68.5983 131.4 68.1953 129.774 67.5986 128.221C67.2257 127.251 65.8678 127.773 66.2407 128.743C66.7628 130.101 66.822 131.415 66.6874 132.803C66.4783 133.997 65.8065 135.146 65.5976 136.34C65.3141 137.339 66.6568 137.936 67.2838 137.25Z" fill="black"/>
<path d="M64.1915 151.801C67.61 147.369 71.9835 143.683 75.7452 139.565C77.432 137.58 74.2984 135.222 72.537 137.012C69.3279 140.25 65.8497 143.369 63.0581 147.114C62.1928 145.443 61.3275 143.771 60.3876 141.905C59.8952 141.204 59.3731 139.845 58.3729 139.562L58.1048 139.443C58.1048 139.443 58.0302 139.248 57.8361 139.323C57.2989 139.084 56.672 139.771 56.8211 140.159C56.7017 140.427 56.7764 140.622 56.9254 141.009C57.1048 142.054 57.6713 142.95 58.1188 144.114C59.2825 146.562 60.3718 148.815 61.1471 151.412C61.4005 152.651 63.2511 152.83 64.1915 151.801Z" fill="black"/>
</svg>
