<svg xmlns="http://www.w3.org/2000/svg" viewBox="0 0 1167.95 163.94"><defs><style>.cls-1{fill:#3db98a;}.cls-2{fill:#161348;}</style></defs><title>Asset 4</title><g id="Layer_2" data-name="Layer 2"><g id="Layer_1-2" data-name="Layer 1"><polygon class="cls-1" points="233.83 0 233.83 132.62 192.84 163.94 192.84 102.47 155.45 102.47 233.83 0"/><polygon class="cls-2" points="199.9 0 168.57 40.96 0 40.96 0 0 199.9 0"/><polygon class="cls-2" points="161.47 122.92 41.01 122.92 41.01 102.45 121.54 102.45 152.88 61.47 0.02 61.47 0.02 110.3 41.01 163.91 192.81 163.91 161.47 122.92"/><polygon class="cls-2" points="299.47 159.14 371.43 159.14 371.43 124.62 333.99 124.62 333.99 100.09 369.36 64.71 333.99 64.71 333.99 39.32 371.43 39.32 371.43 4.8 299.47 4.8 299.47 159.14"/><path class="cls-2" d="M443.21,4.8H384.76V159.14h58.45c19.17,0,28.49-9.32,28.49-28.49V33.29C471.7,14.12,462.38,4.8,443.21,4.8Zm-6,119.82H419.28V39.32h17.91Z"/><path class="cls-2" d="M485,33.29v97.36c0,19.17,9.32,28.49,28.49,28.49H572V64.71H537.45v59.91h-17.9V39.32H572V4.8H513.52C494.35,4.8,485,14.12,485,33.29Z"/><polygon class="cls-2" points="585.29 159.14 657.26 159.14 657.26 124.62 619.81 124.62 619.81 100.09 655.19 64.71 619.81 64.71 619.81 39.32 657.26 39.32 657.26 4.8 585.29 4.8 585.29 159.14"/><path class="cls-2" d="M729,64.71h-15c-5.77,0-8.95-3.18-8.95-8.95V48.27c0-5.77,3.18-9,8.95-9h36V4.8h-51c-19.17,0-28.5,11.77-28.5,36V63.25c0,24.21,9.33,36,28.5,36h15c5.77,0,9,3.18,9,9v7.49c0,5.77-3.18,9-9,9h-36v34.52h51c19.17,0,28.5-11.77,28.5-36V100.69C757.53,76.48,748.2,64.71,729,64.71Z"/><path class="cls-2" d="M814.88,33.29v97.36c0,19.17,9.32,28.49,28.49,28.49h58.45V64.71H867.3v59.91H849.4V39.32h52.42V4.8H843.37C824.2,4.8,814.88,14.12,814.88,33.29Z"/><path class="cls-2" d="M939.91,4.8l-29.4,154.34h34.42l2.85-18.72h26.77l2.85,18.72h34.42L982.42,4.8Zm8.27,133.41,13-84.57,9.58,62Z"/><polygon class="cls-2" points="1003.21 39.32 1025.67 39.32 1025.67 159.14 1060.19 159.14 1060.19 39.32 1082.66 39.32 1082.66 4.8 1003.21 4.8 1003.21 39.32"/><polygon class="cls-2" points="1167.95 39.32 1167.95 4.8 1095.98 4.8 1095.98 159.14 1167.95 159.14 1167.95 124.62 1130.51 124.62 1130.51 100.09 1165.88 64.71 1130.51 64.71 1130.51 39.32 1167.95 39.32"/></g></g></svg>